<svg width="48" height="48" viewBox="0 0 55 55" fill="none" xmlns="http://www.w3.org/2000/svg"><rect x="4.58732" y="14.6694" width="37.5" height="37.5" rx="5.75" transform="rotate(-17 4.58732 14.6694)" stroke="#5E6AD2" stroke-width="0.8"></rect><rect x="1.23588" y="27.0591" width="37.767" height="37.767" rx="5.75" transform="rotate(-45 1.23588 27.0591)" stroke="#D25E5E" stroke-width="0.8"></rect><rect x="4.81375" y="40.4116" width="37.767" height="37.767" rx="5.75" transform="rotate(-75 4.81375 40.4116)" stroke="#A546DF" stroke-width="0.8"></rect><path d="M23.1484 27.8841H20.2691L19.5759 30.1177H18.4799L21.2644 21.4916H22.1827L24.9198 30.1177H23.8297L23.1484 27.8841ZM20.5653 26.9303H22.8581L21.7206 23.186L20.5653 26.9303ZM27.5147 26.6578V30.1177H26.4187V21.4916H29.215C29.6021 21.4995 29.9674 21.5608 30.3111 21.6753C30.6586 21.7898 30.9628 21.9557 31.2234 22.1729C31.4841 22.3902 31.6895 22.6588 31.8396 22.9787C31.9936 23.2986 32.0706 23.6659 32.0706 24.0806C32.0706 24.4953 31.9936 24.8627 31.8396 25.1826C31.6895 25.4986 31.4841 25.7652 31.2234 25.9824C30.9628 26.1996 30.6586 26.3655 30.3111 26.48C29.9674 26.5946 29.6021 26.6538 29.215 26.6578H27.5147ZM27.5147 25.7573H29.215C29.4678 25.7533 29.7008 25.7138 29.9141 25.6388C30.1274 25.5598 30.313 25.4492 30.471 25.307C30.629 25.1648 30.7515 24.993 30.8383 24.7916C30.9292 24.5862 30.9746 24.3532 30.9746 24.0925C30.9746 23.8318 30.9292 23.5968 30.8383 23.3875C30.7515 23.1781 30.629 23.0004 30.471 22.8543C30.317 22.7081 30.1314 22.5956 29.9141 22.5166C29.7008 22.4376 29.4678 22.3961 29.215 22.3922H27.5147V25.7573ZM33.6051 21.4916H38.8186V22.4455H36.751V29.1698H38.8186V30.1177H33.6051V29.1698H35.6253V22.4455H33.6051V21.4916Z" fill="white"></path></svg>