<svg width="231" height="232" viewBox="0 0 231 232" fill="none"><g filter="url(#filter0_d)"><rect x="64" y="54" width="103" height="103" rx="24.6017" fill="url(#paint0_linear)"></rect></g><g filter="url(#filter1_d)"><path d="M110.385 135.764L85.2346 110.613C87.383 123.469 97.5297 133.615 110.385 135.764Z" fill="url(#paint1_linear)"></path><path d="M84.8606 103.815L117.183 136.138C119.101 136.033 120.972 135.751 122.779 135.31L85.6889 98.2191C85.2472 100.027 84.9658 101.897 84.8606 103.815Z" fill="url(#paint2_linear)"></path><path d="M87.3004 93.4064L127.592 133.698C129.058 133.067 130.464 132.325 131.801 131.483L89.5158 89.1976C88.6734 90.5345 87.9314 91.9409 87.3004 93.4064Z" fill="url(#paint3_linear)"></path><path d="M92.2479 85.5055C97.8708 78.9861 106.192 74.8594 115.476 74.8594C132.411 74.8594 146.139 88.5875 146.139 105.522C146.139 114.807 142.012 123.128 135.493 128.751L92.2479 85.5055Z" fill="url(#paint4_linear)"></path></g><defs><filter id="filter0_d" x="0" y="0.54" width="231" height="231" filterUnits="userSpaceOnUse" color-interpolation-filters="sRGB"><feFlood flood-opacity="0" result="BackgroundImageFix"></feFlood><feColorMatrix in="SourceAlpha" type="matrix" values="0 0 0 0 0 0 0 0 0 0 0 0 0 0 0 0 0 0 127 0"></feColorMatrix><feOffset dy="10.54"></feOffset><feGaussianBlur stdDeviation="32"></feGaussianBlur><feColorMatrix type="matrix" values="0 0 0 0 0 0 0 0 0 0 0 0 0 0 0 0 0 0 1 0"></feColorMatrix><feBlend mode="normal" in2="BackgroundImageFix" result="effect1_dropShadow"></feBlend><feBlend mode="normal" in="SourceGraphic" in2="effect1_dropShadow" result="shape"></feBlend></filter><filter id="filter1_d" x="66.2431" y="64.2208" width="98.5135" height="98.5135" filterUnits="userSpaceOnUse" color-interpolation-filters="sRGB"><feFlood flood-opacity="0" result="BackgroundImageFix"></feFlood><feColorMatrix in="SourceAlpha" type="matrix" values="0 0 0 0 0 0 0 0 0 0 0 0 0 0 0 0 0 0 127 0"></feColorMatrix><feOffset dy="7.97893"></feOffset><feGaussianBlur stdDeviation="9.30875"></feGaussianBlur><feColorMatrix type="matrix" values="0 0 0 0 0.0229167 0 0 0 0 0.0380147 0 0 0 0 0.183333 0 0 0 0.6 0"></feColorMatrix><feBlend mode="normal" in2="BackgroundImageFix" result="effect1_dropShadow"></feBlend><feBlend mode="normal" in="SourceGraphic" in2="effect1_dropShadow" result="shape"></feBlend></filter><linearGradient id="paint0_linear" x1="64" y1="54" x2="64" y2="157" gradientUnits="userSpaceOnUse"><stop stop-color="#636DCE"></stop><stop offset="0.984375" stop-color="#2C3480"></stop></linearGradient><linearGradient id="paint1_linear" x1="146.139" y1="157.099" x2="146.139" y2="74.8594" gradientUnits="userSpaceOnUse"><stop stop-color="#D6D9FF"></stop><stop offset="0.848958" stop-color="#FCFCFF"></stop><stop offset="1" stop-color="white"></stop></linearGradient><linearGradient id="paint2_linear" x1="146.139" y1="157.099" x2="146.139" y2="74.8594" gradientUnits="userSpaceOnUse"><stop stop-color="#D6D9FF"></stop><stop offset="0.848958" stop-color="#FCFCFF"></stop><stop offset="1" stop-color="white"></stop></linearGradient><linearGradient id="paint3_linear" x1="146.139" y1="157.099" x2="146.139" y2="74.8594" gradientUnits="userSpaceOnUse"><stop stop-color="#D6D9FF"></stop><stop offset="0.848958" stop-color="#FCFCFF"></stop><stop offset="1" stop-color="white"></stop></linearGradient><linearGradient id="paint4_linear" x1="146.139" y1="157.099" x2="146.139" y2="74.8594" gradientUnits="userSpaceOnUse"><stop stop-color="#D6D9FF"></stop><stop offset="0.848958" stop-color="#FCFCFF"></stop><stop offset="1" stop-color="white"></stop></linearGradient></defs></svg>
