<svg width="16" height="16" viewBox="0 0 16 16" fill="currentColor"><path d="M13.1334 8.69691C13.132 8.81981 13.0823 8.93722 12.9949 9.02365C12.9075 9.11008 12.7896 9.15856 12.6667 9.15856C12.5438 9.15856 12.4258 9.11008 12.3385 9.02365C12.2511 8.93722 12.2013 8.81981 12.2 8.69691V4.49976C12.2013 4.37686 12.2511 4.25945 12.3385 4.17302C12.4258 4.08658 12.5438 4.0381 12.6667 4.0381C12.7896 4.0381 12.9075 4.08658 12.9949 4.17302C13.0823 4.25945 13.132 4.37686 13.1334 4.49976V8.69691ZM12.9705 11.6179C12.8984 11.6797 11.1696 13.1303 8 13.1303C4.83042 13.1303 3.10175 11.6796 3.02962 11.6179C2.93566 11.5373 2.87755 11.4227 2.86807 11.2993C2.85858 11.1759 2.89849 11.0538 2.97903 10.9598C3.05939 10.866 3.1737 10.8079 3.29686 10.7982C3.42002 10.7886 3.54199 10.8282 3.63599 10.9083C3.66339 10.9313 5.20711 12.1969 8.00005 12.1969C10.8281 12.1969 12.3479 10.9221 12.3629 10.9093C12.5582 10.7416 12.8534 10.7641 13.021 10.9599C13.1015 11.0538 13.1415 11.176 13.132 11.2994C13.1225 11.4228 13.0644 11.5374 12.9705 11.6179ZM2.86665 4.49976C2.86798 4.37686 2.91773 4.25945 3.00511 4.17302C3.09248 4.08658 3.21042 4.0381 3.33332 4.0381C3.45623 4.0381 3.57417 4.08658 3.66154 4.17302C3.74892 4.25945 3.79867 4.37686 3.8 4.49976V8.69691C3.79867 8.81981 3.74892 8.93722 3.66154 9.02365C3.57417 9.11008 3.45623 9.15856 3.33332 9.15856C3.21042 9.15856 3.09248 9.11008 3.00511 9.02365C2.91773 8.93722 2.86798 8.81981 2.86665 8.69691V4.49976ZM5.20005 3.5664C5.20193 3.44388 5.25192 3.32701 5.33923 3.24102C5.42654 3.15504 5.54416 3.10685 5.6667 3.10685C5.78924 3.10685 5.90687 3.15504 5.99418 3.24102C6.08149 3.32701 6.13147 3.44388 6.13335 3.5664V9.80083C6.13147 9.92336 6.08149 10.0402 5.99418 10.1262C5.90687 10.2122 5.78924 10.2604 5.6667 10.2604C5.54416 10.2604 5.42654 10.2122 5.33923 10.1262C5.25192 10.0402 5.20193 9.92336 5.20005 9.80083V3.5664ZM7.53335 3.33026C7.53334 3.26898 7.54541 3.2083 7.56886 3.15168C7.59231 3.09506 7.62668 3.04361 7.67001 3.00028C7.71335 2.95694 7.76479 2.92257 7.82141 2.89912C7.87803 2.87567 7.93872 2.86361 8 2.86362C8.06129 2.8636 8.12198 2.87566 8.1786 2.89911C8.23523 2.92255 8.28668 2.95692 8.33002 3.00026C8.37336 3.04359 8.40774 3.09504 8.43119 3.15166C8.45464 3.20829 8.46671 3.26898 8.4667 3.33026V10.0969C8.46537 10.2198 8.41562 10.3372 8.32824 10.4236C8.24087 10.5101 8.12293 10.5586 8.00003 10.5586C7.87712 10.5586 7.75918 10.5101 7.67181 10.4236C7.58443 10.3372 7.53468 10.2198 7.53335 10.0969V3.33026ZM9.8667 3.5664C9.86858 3.44388 9.91857 3.32701 10.0059 3.24102C10.0932 3.15504 10.2108 3.10685 10.3334 3.10685C10.4559 3.10685 10.5735 3.15504 10.6608 3.24102C10.7481 3.32701 10.7981 3.44388 10.8 3.5664V9.80083C10.7981 9.92336 10.7481 10.0402 10.6608 10.1262C10.5735 10.2122 10.4559 10.2604 10.3334 10.2604C10.2108 10.2604 10.0932 10.2122 10.0059 10.1262C9.91857 10.0402 9.86858 9.92336 9.8667 9.80083V3.5664ZM13.25 0.999756H2.75C1.78351 0.999756 1 1.78326 1 2.74976V13.2498C1 14.2162 1.78351 14.9998 2.75 14.9998H13.25C14.2165 14.9998 15 14.2162 15 13.2498V2.74976C15 1.78326 14.2165 0.999756 13.25 0.999756Z"></path></svg>
