<svg width="16" height="16" fill="currentColor" viewBox="0 0 16 16"><g clip-path="url(#asdfh7862hu3irq2jh)" fill="currentColor"><path d="M5.365 1C4.059 1 3 2.042 3 3.328v11.66h3.365c.653 0 1.182-.52 1.182-1.163V9.42a3.023 3.023 0 0 1-1.904-2.797c0-1.668 1.374-3.021 3.07-3.021a3.07 3.07 0 0 1 2.84 1.874h.212c.653 0 1.182-.52 1.182-1.164V1H5.365Z"></path><path d="M6.5 6.75a2.25 2.25 0 1 0 4.5 0 2.25 2.25 0 0 0-4.5 0Z"></path></g><defs><clipPath id="asdfh7862hu3irq2jh"><path fill="#fff" transform="translate(3 1)" d="M0 0h9.947v14H0z"></path></clipPath></defs></svg>
